/* XPM */
static char *_442a28dc4174958e88012fe80f699ce60UTsC4V55FhfUs2[] = {
/* columns rows colors chars-per-pixel */
"64 64 154 2 ",
"   c None",
".  c #010001",
"X  c #0B0101",
"o  c #0B0B0B",
"O  c #130202",
"+  c #1C0102",
"@  c #180708",
"#  c #190909",
"$  c #141414",
"%  c #1C1C1C",
"&  c #230202",
"*  c #2B0102",
"=  c #200708",
"-  c #340102",
";  c #3B0202",
":  c #1F2121",
">  c #232323",
",  c #2C2C2C",
"<  c #343434",
"1  c #383737",
"2  c #363738",
"3  c #3C3C3C",
"4  c #430202",
"5  c #4B0202",
"6  c #520202",
"7  c #540202",
"8  c #550202",
"9  c #530203",
"0  c #590203",
"q  c #5A0203",
"w  c #5C0203",
"e  c #5F0202",
"r  c #5E0203",
"t  c #5B0203",
"y  c #600202",
"u  c #630202",
"i  c #620203",
"p  c #650202",
"a  c #660203",
"s  c #670203",
"d  c #670203",
"f  c #680102",
"g  c #690102",
"h  c #690202",
"j  c #680203",
"k  c #690203",
"l  c #680303",
"z  c #6B0202",
"x  c #6A0203",
"c  c #6B0203",
"v  c #6A0303",
"b  c #6B0303",
"n  c #6D0103",
"m  c #6D0202",
"M  c #6C0203",
"N  c #6D0203",
"B  c #6C0303",
"V  c #6D0303",
"C  c #6F0203",
"Z  c #6E0303",
"A  c #690204",
"S  c #680304",
"D  c #6D0304",
"F  c #6E0304",
"G  c #690203",
"H  c #700202",
"J  c #710202",
"K  c #710203",
"L  c #730202",
"P  c #770102",
"I  c #740202",
"U  c #750202",
"Y  c #770202",
"T  c #760203",
"R  c #770202",
"E  c #7B0101",
"W  c #780102",
"Q  c #7A0102",
"!  c #7B0102",
"~  c #790202",
"^  c #7A0202",
"/  c #7B0202",
"(  c #7D0201",
")  c #7C0202",
"_  c #7D0203",
"`  c #7F0202",
"'  c #7E0203",
"]  c #7D0102",
"[  c #424242",
"{  c #4C4C4C",
"}  c #525252",
"|  c #5C5B5C",
" . c #800101",
".. c #810102",
"X. c #820102",
"o. c #830102",
"O. c #830203",
"+. c #860102",
"@. c #870102",
"#. c #860202",
"$. c #870202",
"%. c #870203",
"&. c #830101",
"*. c #8B0101",
"=. c #890202",
"-. c #8D0101",
";. c #8E0101",
":. c #8F0201",
">. c #8C0102",
",. c #8D0102",
"<. c #8E0102",
"1. c #8F0102",
"2. c #8C0202",
"3. c #8D0202",
"4. c #8E0202",
"5. c #8F0202",
"6. c #8D0102",
"7. c #900101",
"8. c #920101",
"9. c #930101",
"0. c #920102",
"q. c #900202",
"w. c #910202",
"e. c #940101",
"r. c #950101",
"t. c #960101",
"y. c #970101",
"u. c #940102",
"i. c #950102",
"p. c #960102",
"a. c #970102",
"s. c #940202",
"d. c #940101",
"f. c #990000",
"g. c #990001",
"h. c #980101",
"j. c #990101",
"k. c #9A0000",
"l. c #9B0000",
"z. c #9A0100",
"x. c #9B0100",
"c. c #9A0001",
"v. c #9B0001",
"b. c #9A0101",
"n. c #9B0101",
"m. c #980102",
"M. c #990102",
"N. c #9A0102",
"B. c #9C0000",
"V. c #9C0100",
"C. c #9C0001",
"Z. c #9C0101",
"A. c #9D0101",
"S. c #9A0000",
/* pixels */
"                                                                                                                                ",
"                                                              v v                                                               ",
"                                                            v c.c.M                                                             ",
"                                                          v c.c.c.c.M                                                           ",
"                                                        v c.c.c.c.c.c.M                                                         ",
"                                                      v c.c.c.c.c.c.c.c.M                                                       ",
"                                                    v c.c.c.c.c.c.c.c.c.c.M                                                     ",
"                                                  v c.c.c.c.c.c.c.c.c.c.c.c.M                                                   ",
"                                                v c.c.c.c.c.c.c.c.c.c.c.c.c.c.M                                                 ",
"                                              v c.c.c.c.c.c.c.c.c.c.c.c.c.c.c.c.M                                               ",
"                                            v c.c.c.c.c.c.c.c.c.c.c.c.c.c.c.c.c.c.M                                             ",
"                                          M c.c.c.c.c.c.c.c.u.1.1.u.c.c.c.c.c.c.c.c.M                                           ",
"                                        v c.c.c.c.c.c.c.c.c.7 + + q c.c.c.c.c.c.c.c.c.M                                         ",
"                                      M c.c.c.c.c.c.c.c.c.c.; . . 4 c.c.c.c.c.c.c.c.c.c.M                                       ",
"                                    M c.c.c.c.c.c.c.c.c.c.c.4 . . 4 c.c.c.c.c.c.c.c.c.c.c.M                                     ",
"                                  M c.c.c.c.c.c.c.c.c.c.A.A.4 . . 5 A.A.c.c.c.c.c.c.c.c.c.c.M                                   ",
"                                M c.c.c.c.c.c.c.A.c.0.o.L v * . . - L ) =.u.c.c.c.c.c.c.c.c.c.M                                 ",
"                              M c.c.c.c.c.c.c.c.) 5 * O . . . . . . . X + - 7 ) c.c.c.c.c.c.c.c.M                               ",
"                            M c.c.c.c.c.c.c.@.4 O . . O - 5 * . . * 6 ; + . . O 4 @.c.c.c.c.c.c.c.M                             ",
"                          M c.c.c.c.c.c.c.T & . . O 7 @.c.A.4 . . 5 A.c.1.r X . . * ~ c.c.c.c.c.c.c.M                           ",
"                        M c.c.c.c.c.c.A.~ + . . + T c.c.c.c.4 . . 4 c.c.A.v X . . . & o.A.c.c.c.c.c.c.M                         ",
"                      M c.c.c.c.c.c.c.1.* . . . s A.c.c.c.c.4 . . 4 c.c.=.& . . . . . 4 c.c.c.c.c.c.c.c.M                       ",
"                    M c.c.c.c.c.c.c.A.i . . . O @.c.c.c.c.c.4 . . 4 c.A.r . . . . . . + 1.c.c.c.c.c.c.c.c.M                     ",
"                  M c.c.c.c.c.c.c.c.c.; . . . X ~ A.c.c.c.c.4 . . 4 c.A.6 . . . . . . & 1.c.c.c.c.c.c.c.c.c.M                   ",
"                M c.c.c.c.c.c.c.c.c.0.* . . . . - 1.A.c.c.c.4 . . 4 c.A.~ O . . . . . 5 c.c.c.c.c.c.c.c.c.c.c.M                 ",
"              M c.c.c.c.c.c.c.c.c.c.u.* . . . . . * L u.A.A.4 . . 4 c.c.c.M * X X + 5 1.c.c.c.c.c.c.c.c.c.c.c.c.M               ",
"            M c.c.c.c.c.c.c.c.c.c.c.c.; . . . . . . X - i o.; . . 5 A.c.c.c.0.o.~ @.c.c.c.c.c.c.c.c.c.c.c.c.c.c.c.M             ",
"          M c.c.c.c.c.c.c.c.c.c.c.c.A.i . . . . . . . . . O X . . 4 u.c.A.c.c.A.A.c.c.c.c.c.c.c.c.c.c.c.c.c.c.c.c.c.M           ",
"        M c.c.c.c.c.c.c.c.c.c.c.c.c.c.1.* . . . . . . . . . . . . X * 5 L 1.c.A.c.c.c.c.c.c.c.c.c.c.c.c.c.c.c.c.c.c.c.M         ",
"      M c.c.c.c.c.c.c.c.c.c.c.c.c.c.c.c.T + . . . . . . . . . . . . . . X & 4 M 1.c.c.c.c.c.c.c.c.c.c.c.c.c.c.c.c.c.c.c.M       ",
"    M c.c.c.c.c.c.c.c.c.c.c.c.c.c.c.c.c.c.T & . . . . . . . . . . . . . . . . . & q 0.c.c.c.c.c.c.c.c.c.c.c.c.c.c.c.c.c.c.M     ",
"  M c.c.c.c.c.c.c.c.c.c.c.c.c.c.c.c.c.c.c.c.@.5 O . . . . . . . . . . . . . . . . . - @.c.c.c.c.c.c.c.c.c.c.c.c.c.c.c.c.c.c.M   ",
"= M c.c.c.c.c.c.c.c.c.c.c.c.c.c.c.c.c.c.c.c.c.c.o.7 * X . . . . . . . . . . . . . . . - 1.c.c.c.c.c.c.c.c.c.c.c.c.c.c.c.c.c.M + ",
"    M c.c.c.c.c.c.c.c.c.c.c.c.c.c.c.c.c.c.c.c.c.c.c.0.T 6 * X . . . . . . . . . . . . . 5 u.c.c.c.c.c.c.c.c.c.c.c.c.c.c.c.D     ",
"      M c.c.c.c.c.c.c.c.c.c.c.c.c.c.c.c.c.A.A.A.c.c.c.A.A.u.; . . X X . . . . . . . . . O ~ A.c.c.c.c.c.c.c.c.c.c.c.c.c.D       ",
"      O v c.c.c.c.c.c.c.c.c.c.c.c.c.c.c.@.L M o.u.c.c.c.c.c.4 . . 4 ) q * X . . . . . . . 7 A.c.c.c.c.c.c.c.c.c.c.c.c.v O       ",
"    . . O v c.c.c.c.c.c.c.c.c.c.c.c.u.q + . . O 4 1.c.c.c.c.4 . . 5 A.A.u.T - . . . . . . ; c.c.c.c.c.c.c.c.c.c.c.c.b O . .     ",
"  . . . . O v c.c.c.c.c.c.c.c.c.c.A.s X . . . . . 4 u.c.c.c.4 . . 4 c.c.c.A.u.5 . . . . . - u.c.c.c.c.c.c.c.c.c.c.v O . . . .   ",
". . . . . . O v c.c.c.c.c.c.c.c.c.c.; . . . . . . O @.c.c.c.4 . . 4 c.c.c.c.c.0.* . . . . ; c.c.c.c.c.c.c.c.c.c.b O . . . . . . ",
"  . . . . . . O v c.c.c.c.c.c.c.c.u.* . . . . . . O @.c.c.c.4 . . 4 c.c.c.c.c.A.q . . . . 6 A.c.c.c.c.c.c.c.c.v O . . . . . .   ",
"    . . . . > > @ v c.c.c.c.c.c.c.c.4 . . . . . . 5 c.c.c.c.4 . . 4 c.c.c.c.c.A.r . . . X ~ A.c.c.c.c.c.c.c.b O . . . . . .     ",
"      . . > 3 > < @ v c.c.c.c.c.c.A.M X . . . X 5 0.c.c.c.c.4 . . 4 c.c.c.c.c.u.; . . . ; u.c.c.c.c.c.c.c.v O . . . . . .       ",
"        . > > . > , O v c.c.c.c.c.c.u.4 . . . * 0.A.c.c.c.c.4 . . 4 c.c.c.c.c.s X . . + ) A.c.c.c.c.c.c.b O . . . . . .         ",
"          o < > $ < % # v c.c.c.c.c.c.1.; . . X 6 1.c.c.c.c.4 . . 4 A.c.A.u.v O . . + T c.c.c.c.c.c.c.v O . . . . . .           ",
"            o , % . 1 [ @ v c.c.c.c.c.A.0.7 O . . * r o.0.c.4 . . 4 u.=.M ; X . X - o.c.c.c.c.c.c.c.s # , 3 % . . .             ",
"              . % 1 } , < # v c.c.c.c.c.c.c.) 4 O . . O * ; + . . + - + . . X - v u.A.c.c.c.c.c.c.s # < % % 3 . .               ",
"                o [ , [ < , O v c.c.c.c.c.c.A.c.o.q - + X X . . . . O + - q ) u.A.c.c.c.c.c.c.c.v @ [ 1 . % , .                 ",
"                  o o [ 1 > $ # v c.c.c.c.c.c.c.A.A.u.1.o.T - . . ; @.1.c.A.A.c.c.c.c.c.c.c.c.s # , % 1 1 < o                   ",
"                    . < < . < [ @ v c.c.c.c.c.c.c.c.c.c.A.A.4 . . 5 A.c.c.c.c.c.c.c.c.c.c.c.s # < , o $ [ o                     ",
"                      o > < 3 % % # v c.c.c.c.c.c.c.c.c.c.c.4 . . 4 c.c.c.c.c.c.c.c.c.c.c.v # 1 { o . o o                       ",
"                        o [ % . < 3 O v c.c.c.c.c.c.c.c.c.c.4 . . 4 c.c.c.c.c.c.c.c.c.c.v @ < > > { , .                         ",
"                          o % , { 3 . O v c.c.c.c.c.c.c.c.c.5 O O 6 c.c.c.c.c.c.c.c.c.s # 2 3 o o < o                           ",
"                            o [ < , . o @ v c.c.c.c.c.c.c.c.1.@.@.1.c.c.c.c.c.c.c.c.s # [ > . . . .                             ",
"                              . > [ < | 3 @ s c.c.c.c.c.c.c.c.c.c.c.c.c.c.c.c.c.c.S # < 1 1 % o .                               ",
"                                . > [ < $ : # s c.c.c.c.c.c.c.c.c.c.c.c.c.c.c.c.S O $ < . < [ o                                 ",
"                                  o 3 $ . 3 [ # s c.c.c.c.c.c.c.c.c.c.c.c.c.c.v O . . . . $ o                                   ",
"                                    . > 3 } < < # v c.c.c.c.c.c.c.c.c.c.c.c.S O . . . . . .                                     ",
"                                      o 3 < 3 , < O v c.c.c.c.c.c.c.c.c.c.s O . . . . . .                                       ",
"                                        o < , % $ . O v c.c.c.c.c.c.c.c.S O . . . . . .                                         ",
"                                          o < $ . . . O s c.c.c.c.c.c.s O . . . . . .                                           ",
"                                            . . . . . . @ D c.c.c.c.D @ . . . . . .                                             ",
"                                              . . . . .     M c.c.b     . . . . .                                               ",
"                                                . . .         v v         . . .                                                 ",
"                                                  .           = =           .                                                   "
};
