/* XPM */
static char *_0d015578dcf4c80d2d6a1c9b8b7d941lrpsPxVhJ9k2PlJu[] = {
/* columns rows colors chars-per-pixel */
"16 16 144 2 ",
"   c black",
".  c #4B0203",
"X  c #4C0203",
"o  c #4D0203",
"O  c #0D0E0E",
"+  c #2F3030",
"@  c #111212",
"#  c gray3",
"$  c #070707",
"%  c gray20",
"&  c #202121",
"*  c #060606",
"=  c #383839",
"-  c #040404",
";  c #0C0C0C",
":  c #161616",
">  c #030404",
",  c #0A0304",
"<  c #740102",
"1  c #0B0404",
"2  c #000405",
"3  c #770102",
"4  c #940000",
"5  c #940001",
"6  c #770102",
"7  c #940000",
"8  c #940001",
"9  c #780102",
"0  c #950000",
"q  c #950001",
"w  c #020305",
"e  c #010305",
"r  c #0C0304",
"t  c #780102",
"y  c #0D0304",
"u  c #760102",
"i  c #670202",
"p  c None",
"a  c #900001",
"s  c #680203",
"d  c #020101",
"f  c #020102",
"g  c #010202",
"h  c #161616",
"j  c #010101",
"k  c #000202",
"l  c #141616",
"z  c #272727",
"x  c gray10",
"c  c #020303",
"v  c #1A1B1B",
"b  c gray14",
"n  c #1E1E1E",
"m  c #181919",
"M  c #1B1C1C",
"N  c gray15",
"B  c #1B1C1C",
"V  c #0D0E0E",
"C  c #1B1C1C",
"Z  c #252525",
"A  c #910001",
"S  c #060707",
"D  c #060707",
"F  c #030202",
"G  c #680303",
"H  c #680203",
"J  c #020101",
"K  c #940000",
"L  c #9A0000",
"P  c #5E0101",
"I  c #600101",
"U  c #9B0000",
"Y  c #790101",
"T  c #560101",
"R  c #370101",
"E  c #3A0101",
"W  c #530101",
"Q  c #790001",
"!  c #860001",
"~  c #250101",
"^  c #760101",
"/  c #5C0101",
"(  c #570101",
")  c #2C0101",
"_  c #1F0101",
"`  c #900000",
"'  c #9C0000",
"]  c #0B0001",
"[  c #3D0101",
"{  c #540101",
"}  c #660101",
"|  c #610101",
" . c #960000",
".. c #460101",
"X. c #080000",
"o. c black",
"O. c #0F0000",
"+. c #6F0101",
"@. c #990000",
"#. c #970000",
"$. c #840101",
"%. c #740101",
"&. c #360101",
"*. c #140001",
"=. c #0B0000",
"-. c #0C0001",
";. c #750101",
":. c #3C0303",
">. c #910101",
",. c #9D0000",
"<. c #680101",
"1. c #130001",
"2. c #670101",
"3. c #590101",
"4. c #0F0001",
"5. c #5A0101",
"6. c #9E0000",
"7. c #4B1112",
"8. c #930101",
"9. c #730001",
"0. c #160101",
"q. c #6C0101",
"w. c #7C0101",
"e. c #2A0101",
"r. c #7F0000",
"t. c #920101",
"y. c #3D0404",
"u. c #4E1515",
"i. c #8F0101",
"p. c #770001",
"a. c #5B0101",
"s. c #380101",
"d. c #5D0101",
"f. c #7E0000",
"g. c #4D1414",
"h. c #4C1213",
"j. c #910000",
"k. c #930202",
"l. c #4F1516",
"z. c #910202",
"x. c #930000",
"c. c #430A0A",
"v. c #410808",
"b. c white",
/* pixels */
"        . . , < < 1 X .         ",
"      . . 2 3 4 5 3 2 X .       ",
"    X X 2 6 7 K K 8 6 2 X X     ",
"  X X 2 9 0 L P I U q 9 w o X   ",
"X X 2 9 8 Y T R E W Q 8 9 e o X ",
"X 2 6 0 ! ~ ^ / ( ) _ ` q 9 e o ",
"r t 7 ' Q ] E [ { } |  .U 8 t y ",
"u 4 L L K ..X.o.O.R +.@.L L 5 u ",
"i p U L #.$.%.&.*.=.-.;.' U a s ",
"d :.>.,.<.1.2.P 3.^ 4.5.6.` E f ",
"g h 7.8.9.0.q.5.5.w.e.r.t.y.j k ",
"O l z u.i.p.a.R s.d.f.>.g.x c   ",
"  + v b h.j.U P I ,.k.g.n m @ # ",
"$   % M N l.z.x.K ` c.B V &   $ ",
"  *   = C Z v.p A E j S - ; #   ",
"    -   : D F G H J g > ; #     "
};
