<?xml version="1.0" standalone="no"?>
<!DOCTYPE svg PUBLIC "-//W3C//DTD SVG 20010904//EN"
 "http://www.w3.org/TR/2001/REC-SVG-20010904/DTD/svg10.dtd">
<svg version="1.0" xmlns="http://www.w3.org/2000/svg"
 width="512.000000pt" height="512.000000pt" viewBox="0 0 512.000000 512.000000"
 preserveAspectRatio="xMidYMid meet">

<g transform="translate(0.000000,512.000000) scale(0.100000,-0.100000)"
fill="#000000" stroke="none">
<path d="M1280 3835 l-1275 -1275 133 -133 132 -132 -125 -125 c-69 -69 -125
-132 -125 -140 0 -20 1990 -2010 2010 -2010 8 0 71 56 140 125 l125 125 132
-132 133 -133 133 133 132 132 125 -125 c69 -69 132 -125 140 -125 20 0 2010
1990 2010 2010 0 8 -56 71 -125 140 l-125 125 132 132 133 133 -1275 1275
c-701 701 -1277 1275 -1280 1275 -3 0 -579 -574 -1280 -1275z m-652 -1996 c50
-25 99 -85 108 -135 7 -36 13 -41 32 -22 23 23 25 -3 2 -27 -30 -32 -40 -32
-40 2 0 15 -9 45 -20 68 -54 112 -180 146 -216 59 -12 -30 -12 -39 1 -71 27
-65 97 -120 160 -125 14 -1 25 -8 25 -16 0 -20 -55 -7 -109 26 -63 39 -102 91
-108 146 -11 98 66 143 165 95z m330 -322 c95 -96 112 -119 112 -145 0 -62
-67 -76 -114 -23 -11 11 -22 21 -26 21 -12 0 -3 -110 10 -126 15 -17 61 -19
77 -3 7 7 13 7 17 1 9 -15 -22 -35 -55 -35 -52 0 -72 31 -78 122 -6 74 -9 84
-39 113 l-32 33 -27 -27 -27 -27 22 -24 c24 -25 28 -37 13 -37 -11 0 -114 106
-120 123 -2 6 11 -1 29 -16 l33 -28 59 58 c32 31 58 62 58 69 0 6 -9 19 -20
29 -21 19 -26 35 -12 35 4 0 58 -51 120 -113z m3348 37 c35 -17 64 -58 64 -89
0 -43 -62 -123 -183 -234 -41 -39 -64 -35 -27 4 l24 26 -62 61 -61 62 -26 -24
c-14 -13 -28 -20 -32 -16 -11 11 168 186 212 207 49 23 49 23 91 3z m-3023
-377 c-3 -5 -17 3 -32 17 l-27 26 -64 -65 -64 -65 24 -25 c13 -14 21 -27 19
-30 -3 -2 -34 25 -69 60 -36 36 -60 65 -54 65 6 0 19 -9 29 -20 10 -11 23 -20
29 -20 7 0 38 27 71 60 l59 60 -22 23 c-12 13 -22 30 -22 37 0 8 29 -14 65
-50 35 -35 62 -68 58 -73z m2721 71 c-4 -5 -16 0 -28 11 l-22 21 -47 -48 -46
-47 60 -62 c34 -35 64 -63 67 -63 3 0 16 10 29 22 13 12 25 19 28 17 2 -3 -25
-34 -60 -69 -36 -36 -65 -58 -65 -50 0 9 9 21 20 28 11 7 20 18 20 25 0 7 -27
39 -60 72 l-60 59 -45 -44 c-48 -47 -53 -61 -30 -80 8 -7 12 -17 9 -22 -3 -5
-19 3 -35 18 l-29 28 122 123 122 123 28 -27 c15 -14 25 -30 22 -35z m-2634
-143 l34 -35 -17 -112 c-9 -61 -15 -114 -12 -117 3 -2 55 3 116 13 l112 18 38
-38 c21 -20 36 -41 32 -46 -3 -6 -17 2 -32 16 l-27 26 -64 -65 -64 -65 22 -23
c46 -49 19 -39 -33 13 -30 30 -55 59 -55 64 0 5 8 2 18 -7 10 -10 23 -17 28
-17 5 0 34 25 64 55 30 30 50 55 45 55 -6 0 -58 -7 -118 -16 -59 -9 -110 -14
-113 -12 -3 3 2 46 10 94 9 49 16 101 16 116 0 25 -3 23 -54 -30 -48 -50 -53
-59 -40 -73 16 -17 19 -39 5 -39 -12 0 -105 110 -98 116 3 4 16 -3 28 -15 13
-12 25 -21 29 -21 3 0 32 27 65 60 l59 60 -22 23 c-12 13 -22 26 -22 30 0 15
18 5 50 -28z m2354 -137 c-3 -5 -14 -2 -23 6 -25 23 -32 21 -81 -29 l-44 -45
59 -60 c33 -33 65 -60 72 -60 7 0 17 9 23 20 6 11 18 20 28 20 11 0 -6 -23
-48 -65 -35 -35 -66 -62 -69 -60 -2 3 3 13 11 22 30 36 28 42 -33 103 l-62 61
-48 -47 -49 -48 20 -21 c30 -32 11 -39 -22 -8 l-28 27 122 123 122 123 28 -27
c15 -14 25 -30 22 -35z m-1876 -340 l121 -123 -26 -27 c-14 -15 -30 -25 -35
-22 -5 4 1 17 13 30 l22 24 -82 81 -82 81 -25 -23 c-32 -30 -30 -39 10 -78 25
-25 39 -31 55 -26 29 9 26 -6 -7 -38 -34 -32 -46 -34 -37 -6 5 16 -2 30 -31
60 l-38 39 -28 -27 -28 -27 77 -78 c43 -43 82 -78 87 -78 5 0 17 7 27 16 29
26 30 -1 1 -29 l-28 -27 -124 125 c-68 68 -121 127 -117 131 4 4 18 -3 32 -16
l25 -24 60 59 c33 33 60 65 60 72 0 7 -9 17 -20 23 -20 11 -27 30 -11 30 5 0
63 -55 129 -122z"/>
<path d="M870 1515 l-24 -25 50 -52 c75 -78 98 -97 115 -98 19 0 39 19 39 39
0 14 -137 161 -151 161 -3 0 -16 -11 -29 -25z"/>
<path d="M4148 1473 l-69 -68 63 -62 c71 -70 62 -71 146 19 43 47 52 63 52 93
0 49 -36 85 -86 85 -31 0 -46 -9 -106 -67z"/>
</g>
</svg>
