/* XPM */
static char *d1eab0aa3e2844cf855ff9c0168894c4tPh2FoeQIP7c7udE[] = {
/* columns rows colors chars-per-pixel */
"32 32 206 2 ",
"   c None",
".  c black",
"X  c #010000",
"o  c #000001",
"O  c #000101",
"+  c #010101",
"@  c #020000",
"#  c #000102",
"$  c #000202",
"%  c #020202",
"&  c gray1",
"*  c #050000",
"=  c #040001",
"-  c #050001",
";  c #050101",
":  c #060000",
">  c #060001",
",  c #070001",
"<  c #070101",
"1  c #050102",
"2  c #040404",
"3  c #060505",
"4  c #0D0101",
"5  c #0E0101",
"6  c #0F0101",
"7  c #0E0102",
"8  c #060708",
"9  c #0C0C0C",
"0  c #100001",
"q  c #100101",
"w  c #110101",
"e  c #120101",
"r  c #130101",
"t  c #140101",
"y  c #150101",
"u  c #160101",
"i  c #170101",
"p  c #180101",
"a  c #190101",
"s  c #1A0101",
"d  c #1D0101",
"f  c #1F0102",
"g  c #0E0F10",
"h  c #111111",
"j  c #131313",
"k  c gray8",
"l  c #151515",
"z  c #161616",
"x  c gray9",
"c  c #181818",
"v  c #191919",
"b  c gray10",
"n  c #1D1D1D",
"m  c #1E1E1E",
"M  c gray12",
"N  c #230100",
"B  c #220101",
"V  c #230101",
"C  c #200102",
"Z  c #250000",
"A  c #250100",
"S  c #240101",
"D  c #250101",
"F  c #260101",
"G  c #270101",
"H  c #280101",
"J  c #2A0101",
"K  c #2B0101",
"L  c #290102",
"P  c #2A0102",
"I  c #2C0303",
"U  c #2E0405",
"Y  c #2E0606",
"T  c #320101",
"R  c #330101",
"E  c #340101",
"W  c #350101",
"Q  c #350102",
"!  c #360102",
"~  c #380101",
"^  c #3A0102",
"/  c #3C0101",
"(  c #3D0101",
")  c #3F0101",
"_  c #3E0102",
"`  c #3F0102",
"'  c #350C0C",
"]  c #380F0F",
"[  c #380F10",
"{  c #381010",
"}  c #3A1111",
"|  c #3A1112",
" . c #3C1313",
".. c #3C1314",
"X. c #3C1415",
"o. c #3D1415",
"O. c #3F1717",
"+. c #1E2020",
"@. c gray13",
"#. c #222323",
"$. c #222324",
"%. c gray14",
"&. c #252525",
"*. c #272727",
"=. c #272828",
"-. c #282A2A",
";. c #292A2A",
":. c #2A2C2C",
">. c #2C2D2E",
",. c #2F2F2F",
"<. c #2F3131",
"1. c gray19",
"2. c #313232",
"3. c #313233",
"4. c #363737",
"5. c #373737",
"6. c #400102",
"7. c #410102",
"8. c #440101",
"9. c #470101",
"0. c #440102",
"q. c #440304",
"w. c #450304",
"e. c #440404",
"r. c #440405",
"t. c #4B0101",
"y. c #490102",
"u. c #4E0101",
"i. c #4F0101",
"p. c #4D0102",
"a. c #4E0102",
"s. c #510101",
"d. c #530102",
"f. c #500203",
"g. c #510203",
"h. c #520203",
"j. c #540102",
"k. c #520304",
"l. c #510405",
"z. c #520404",
"x. c #520505",
"c. c #590101",
"v. c #5B0101",
"b. c #580102",
"n. c #590102",
"m. c #5A0102",
"M. c #5E0102",
"N. c #401718",
"B. c #630101",
"V. c #610102",
"C. c #650102",
"Z. c #670102",
"A. c #690101",
"S. c #6F0101",
"D. c #6E0102",
"F. c #730101",
"G. c #770101",
"H. c #740102",
"J. c #7A0101",
"K. c #7B0101",
"L. c #780102",
"P. c #7F0101",
"I. c #810101",
"U. c #830101",
"Y. c #850000",
"T. c #850001",
"R. c #840101",
"E. c #850101",
"W. c #860001",
"Q. c #860101",
"!. c #870101",
"~. c #840102",
"^. c #850102",
"/. c #860102",
"(. c #890101",
"). c #8A0101",
"_. c #8B0101",
"`. c #8B0102",
"'. c #8C0101",
"]. c #8D0101",
"[. c #8E0101",
"{. c #8F0101",
"}. c #8C0102",
"|. c #900101",
" X c #920101",
".X c #950000",
"XX c #940001",
"oX c #950001",
"OX c #940101",
"+X c #950101",
"@X c #970000",
"#X c #960001",
"$X c #970001",
"%X c #960101",
"&X c #970101",
"*X c #990000",
"=X c #980001",
"-X c #990001",
";X c #980101",
":X c #9A0000",
">X c #9B0000",
",X c #9A0001",
"<X c #9B0001",
"1X c #9A0101",
"2X c #9C0000",
"3X c #9D0000",
/* pixels */
"                              f.f.                              ",
"                              ).).                              ",
"                            ).>X>X).                            ",
"                          ).>X>X>X>X).                          ",
"                        ).>X>X>X>X>X>X).                        ",
"                      ).>X>X>X{. X>X>X>X).                      ",
"                    ).>X>X>XoX~ ~ oX>X>X>X).                    ",
"                  ).>X>X2X2XoXN A oX2X2X>X>X).                  ",
"                ).>X>XoXG.f.` 6 q 8.v.K.oX>X>X).                ",
"              ).>X>X).` u ` V.s f Z.7.q 7.{.>X>X).              ",
"            ).>X>X X! = M.>XoXA P >XZ.= . ` oX>X>X).            ",
"          ).>X>X2XD.= q R.2XoXA P oX! . . s {.>X>X>X).          ",
"        ).>X>X>X2Xv.. . ` R.oXA P oXV.s q p.oX>X>X>X>X).        ",
"      ).>X>X>X>X2XD.= . . u ` u A {.>X{.R.oX>X>X>X>X>X>X).      ",
"    ).>X>X>X>X>X>X X! . . . . . = A y.F. X2X>X>X>X>X>X>X>X).    ",
"f.).>X>X>X>X>X>X>X>X).7.6 . . . . . . = P F.>X>X>X>X>X>X>X>X).f.",
"z.{.>X>X>X>X>X>X>X>X2X>XK.p.A = . . . . . u K.2X>X>X>X>X>X>X{.k.",
"  q.R.2X>X>X>X>X>X>XU.U.>X2X{.N u ~ u . . . ` >X>X>X>X>X2XR.q.  ",
"  . P R.2X>X>X>X>Xv.q 6 y.oXoXA P oXR.8.= . N  X>X>X>X2XR.P .   ",
". . . I R.2X>X>X XN . . q ).oXA A oX2X XA . P oX>X>X2XR.P . . . ",
"  . 9 @.} R.2X>XoX! . = p.oXoXA A oX>XoXP . j.>X>X2XR.P . . .   ",
"    l n +.[ R.2X>XK.s 6 G.>XoXA P >XoXv.= R {.>X2XR.U . . .     ",
"      l @.4...R.2X>XP.~ f 7.v.s s f.! N p.{.>X2XR...$.l .       ",
"        n 1.:.' R.2X2XoXK.v.8.q q p.A.).>X>X2XR.} ,.*.l         ",
"          v *.-.] R.2X>X2X2XoXA A oX2X>X>X2XR.X.-.h n           ",
"            n @.1.U R.2X>X>XoXR ! oX>X>X2XR.X.$.*.l             ",
"              n ,.=. .R.2X>X>X).{.>X>X2XR.X.<.h 2               ",
"                v ,.@.N.R.2X>X>X>X>X2XR.P g v n                 ",
"                  l 4.1.} R.2X>X>X2XR.P . . .                   ",
"                    n @.8 P R.>X>XR.P . . .                     ",
"                      2 . . r.).).r.. . .                       ",
"                        .     z.z.    .                         "
};
